<?xml version="1.0" standalone="no"?>
<!DOCTYPE svg PUBLIC "-//W3C//DTD SVG 20010904//EN"
 "http://www.w3.org/TR/2001/REC-SVG-20010904/DTD/svg10.dtd">
<svg version="1.0" xmlns="http://www.w3.org/2000/svg"
 width="1600.000000pt" height="1600.000000pt" viewBox="0 0 1600.000000 1600.000000"
 preserveAspectRatio="xMidYMid meet">
<metadata>
Created by potrace 1.14, written by Peter Selinger 2001-2017
</metadata>
<g transform="translate(0.000000,1600.000000) scale(0.100000,-0.100000)"
fill="#000000" stroke="none">
<path d="M2124 11631 c-9 -19 -25 -101 -26 -131 0 -3 -4 -16 -9 -29 -5 -13
-11 -38 -14 -55 -2 -17 -7 -41 -10 -53 -11 -47 -15 -69 -20 -98 -3 -16 -21
-102 -40 -190 -18 -88 -36 -173 -39 -190 -3 -16 -19 -95 -36 -175 -35 -165
-41 -197 -45 -225 -2 -11 -4 -20 -5 -20 -2 0 -8 -26 -25 -115 l-6 -35 1258 0
c833 0 1257 -3 1256 -10 -5 -32 -13 -77 -23 -125 -6 -30 -13 -68 -16 -85 -2
-16 -7 -37 -9 -45 -2 -8 -7 -31 -10 -50 -3 -19 -8 -43 -11 -52 -7 -23 -13 -56
-20 -108 -3 -25 -8 -48 -10 -51 -2 -4 -6 -24 -10 -44 -3 -21 -8 -46 -10 -56
-2 -11 -6 -29 -9 -41 -3 -13 -7 -36 -10 -53 -2 -16 -11 -61 -19 -100 -8 -38
-17 -83 -20 -100 -6 -35 -13 -70 -20 -93 -3 -9 -7 -35 -11 -56 -3 -21 -8 -51
-12 -65 -3 -14 -7 -37 -9 -51 -1 -14 -3 -25 -4 -25 -2 0 -10 -35 -16 -74 -2
-19 -6 -37 -9 -41 -2 -3 -7 -29 -11 -56 -3 -27 -8 -52 -10 -55 -2 -4 -6 -24
-10 -44 -3 -21 -8 -47 -10 -59 -3 -18 -16 -81 -19 -96 -1 -3 -5 -25 -10 -50
-5 -25 -9 -47 -10 -50 -1 -3 -5 -25 -9 -50 -5 -25 -10 -54 -12 -65 -10 -48
-24 -112 -28 -131 -2 -12 -7 -37 -10 -55 -3 -19 -24 -124 -46 -234 -23 -110
-43 -211 -45 -225 -2 -14 -7 -36 -10 -50 -3 -14 -8 -40 -11 -59 -8 -46 -12
-71 -20 -106 -4 -16 -8 -39 -10 -50 -1 -11 -3 -20 -4 -20 -2 0 -4 -9 -6 -20
-1 -11 -5 -30 -7 -41 -3 -12 -8 -38 -11 -58 -3 -19 -11 -57 -17 -83 -6 -27
-12 -59 -14 -73 -2 -14 -10 -56 -18 -95 -9 -38 -17 -83 -20 -100 -3 -16 -8
-41 -11 -55 -3 -14 -8 -36 -10 -50 -2 -14 -9 -45 -14 -70 -6 -25 -13 -61 -16
-80 -3 -19 -15 -71 -27 -115 -11 -44 -22 -84 -24 -90 -1 -5 -4 -17 -7 -25 -3
-8 -16 -44 -28 -80 -60 -172 -177 -369 -279 -468 -45 -44 -116 -103 -140 -116
-9 -5 -22 -16 -29 -23 -8 -7 -53 -32 -100 -54 -118 -55 -121 -57 -172 -70 -45
-12 -53 -14 -100 -23 -14 -2 -25 -5 -25 -6 0 -4 -222 -24 -250 -22 -162 8
-244 17 -332 37 -13 3 -33 7 -45 10 -55 12 -161 52 -238 89 -92 45 -190 106
-190 118 0 5 -6 8 -12 8 -18 1 -171 139 -243 221 -45 50 -125 157 -164 217
-18 28 -36 52 -40 52 -3 0 -52 -44 -107 -97 -56 -54 -172 -165 -259 -248 -87
-82 -186 -177 -220 -210 -35 -33 -122 -116 -195 -185 -72 -69 -172 -164 -221
-211 l-90 -86 18 -32 c10 -17 21 -31 26 -31 4 0 7 -5 7 -11 0 -36 242 -304
375 -414 33 -27 62 -52 65 -56 3 -3 20 -14 38 -24 17 -11 32 -23 32 -27 0 -4
7 -8 15 -8 8 0 15 -4 15 -10 0 -5 4 -10 9 -10 6 0 29 -13 53 -29 61 -41 284
-163 291 -159 1 1 20 -7 42 -16 22 -10 49 -22 60 -26 11 -4 43 -17 70 -28 71
-29 292 -93 360 -106 30 -5 56 -10 105 -22 14 -3 37 -7 53 -10 15 -2 42 -6 60
-9 108 -18 250 -32 382 -40 44 -3 91 -7 105 -8 14 -2 31 1 38 6 6 5 12 6 12 1
0 -5 53 -8 117 -7 65 0 118 2 118 2 0 1 50 4 110 6 61 2 135 7 165 10 30 3 71
8 90 10 64 6 135 16 150 20 8 2 33 7 55 10 52 7 65 9 150 30 39 9 81 19 95 21
52 10 281 85 337 110 17 8 34 14 37 14 28 0 340 174 406 227 8 6 49 38 90 70
253 199 490 501 657 838 43 86 57 118 55 128 -1 4 3 7 8 7 6 0 10 9 10 20 0
11 4 20 10 20 5 0 9 3 8 8 0 4 2 16 7 27 30 74 84 220 90 245 1 3 4 12 8 20 7
19 31 93 32 100 0 3 3 10 6 15 4 6 10 26 14 45 4 19 14 55 22 80 8 25 17 53
19 63 2 9 6 25 8 35 2 9 14 56 26 104 11 47 22 96 23 107 1 12 4 21 8 21 3 0
6 16 7 35 1 20 4 40 7 44 2 5 7 26 11 46 7 43 9 54 23 115 5 25 12 59 15 75 3
17 8 41 11 55 4 14 7 34 9 45 2 11 11 56 20 100 21 103 25 124 31 160 3 17 8
37 10 45 2 8 7 29 10 45 2 17 7 41 10 55 9 42 36 174 41 200 2 14 7 36 10 50
3 14 8 36 10 50 2 14 7 36 10 50 3 14 8 36 11 50 2 14 11 59 20 100 8 41 17
85 19 98 2 12 6 34 10 50 3 15 7 41 10 57 3 17 9 46 14 65 5 19 12 53 16 75 8
49 12 70 14 70 2 0 5 15 14 74 3 18 8 41 11 51 3 10 7 32 10 49 2 17 6 38 9
48 3 10 8 34 11 53 3 19 10 51 15 70 4 19 11 53 14 75 2 22 7 47 10 55 3 8 8
26 10 40 3 14 10 50 16 80 6 30 13 66 15 80 2 14 9 48 15 75 7 28 13 59 15 70
2 11 6 34 10 50 6 29 40 196 50 245 3 14 7 39 10 55 3 17 8 41 11 55 3 14 7
36 10 50 3 14 7 32 9 40 3 8 7 33 10 55 4 22 13 69 21 105 9 36 17 74 19 85 1
11 5 34 9 50 3 17 8 41 11 55 2 14 7 36 10 50 6 26 12 57 20 100 3 14 7 36 11
50 3 14 8 44 11 68 3 23 8 42 12 42 3 0 7 12 7 28 1 15 4 37 7 48 3 12 8 37
11 55 3 19 8 45 11 59 3 14 7 36 10 50 3 14 7 36 10 50 3 14 8 36 11 50 4 22
16 83 38 193 4 15 8 39 12 55 25 124 34 170 38 192 4 22 9 47 31 150 8 40 24
123 29 150 3 14 8 39 11 56 l7 32 -2075 0 c-1904 -1 -2076 -2 -2083 -17z"/>
<path d="M7905 11621 c-3 -14 -7 -35 -9 -46 -2 -11 -20 -99 -40 -196 -19 -96
-38 -190 -41 -207 -3 -18 -12 -64 -20 -102 -17 -80 -26 -126 -30 -155 -2 -11
-11 -54 -20 -95 -23 -104 -23 -104 -29 -141 -3 -19 -12 -67 -20 -106 -19 -90
-28 -132 -31 -158 -2 -11 -4 -20 -5 -20 -1 0 -4 -13 -6 -30 -2 -16 -9 -50 -14
-75 -6 -25 -13 -56 -15 -70 -3 -14 -8 -38 -12 -55 -3 -16 -7 -37 -8 -45 -1 -8
-5 -28 -9 -45 -10 -44 -16 -77 -22 -105 -2 -14 -7 -36 -9 -50 -3 -14 -7 -36
-10 -50 -3 -14 -12 -59 -20 -100 -21 -103 -24 -120 -31 -155 -3 -16 -10 -50
-16 -75 -6 -25 -12 -56 -13 -70 -1 -14 -5 -32 -8 -40 -3 -8 -8 -31 -11 -50 -6
-36 -12 -66 -21 -110 -11 -47 -39 -189 -49 -250 -4 -19 -9 -43 -12 -53 -3 -11
-7 -29 -9 -40 -2 -12 -13 -69 -25 -127 -12 -58 -23 -118 -26 -135 -2 -16 -17
-93 -33 -170 -16 -77 -32 -153 -35 -170 -3 -16 -10 -52 -16 -80 -6 -27 -13
-66 -16 -85 -3 -19 -7 -42 -10 -50 -7 -19 -24 -105 -31 -150 -2 -19 -8 -51
-13 -70 -5 -19 -12 -51 -15 -70 -3 -19 -8 -43 -11 -53 -3 -11 -7 -29 -8 -40
-2 -12 -6 -35 -10 -52 -10 -48 -17 -78 -22 -105 -2 -14 -10 -50 -16 -80 -7
-30 -12 -62 -13 -70 -1 -8 -5 -31 -10 -50 -5 -19 -9 -42 -11 -50 -6 -43 -36
-187 -41 -200 -3 -8 -7 -28 -9 -45 -1 -16 -14 -84 -28 -150 -25 -115 -35 -166
-40 -211 -1 -11 -5 -24 -8 -30 -3 -5 -9 -31 -13 -59 -5 -27 -10 -57 -12 -65
-2 -8 -5 -24 -7 -35 -2 -11 -14 -67 -26 -125 -12 -58 -23 -118 -25 -135 -2
-16 -4 -30 -5 -30 -2 0 -4 -9 -6 -20 -1 -11 -5 -31 -9 -45 -3 -14 -8 -43 -11
-65 -4 -22 -11 -51 -15 -64 -5 -13 -12 -47 -15 -75 -3 -28 -8 -55 -12 -60 -3
-5 -6 -19 -8 -30 -4 -37 -15 -90 -25 -130 -6 -21 -8 -44 -5 -52 3 -8 2 -14 -3
-14 -4 0 -8 -6 -8 -12 0 -7 -4 -26 -7 -43 -4 -16 -10 -46 -12 -65 -3 -19 -9
-51 -14 -70 -5 -19 -12 -51 -15 -70 -3 -19 -8 -43 -11 -53 -3 -11 -7 -29 -9
-40 -3 -24 -11 -67 -20 -107 -4 -14 -8 -38 -11 -55 -2 -16 -9 -50 -15 -75 -5
-25 -12 -56 -14 -70 -3 -14 -9 -47 -15 -75 -14 -67 -19 -94 -26 -130 -3 -16
-9 -48 -14 -70 -5 -22 -12 -56 -15 -75 -8 -41 -13 -63 -15 -70 -1 -3 -2 -8 -1
-13 1 -4 -4 -28 -10 -53 -9 -34 -9 -48 0 -57 8 -8 11 -8 11 1 0 8 7 9 22 3 12
-4 37 -5 55 -1 18 5 33 4 33 0 0 -5 14 -5 30 0 17 5 30 6 30 2 0 -8 88 -7 96
1 4 3 17 2 30 -3 14 -6 26 -6 29 1 4 5 13 6 22 0 9 -5 29 -5 45 -1 15 5 30 5
33 0 3 -5 16 -5 30 0 15 6 27 6 30 0 3 -5 15 -6 28 -1 12 5 32 5 44 0 13 -5
25 -4 28 1 3 6 15 6 30 0 15 -6 27 -6 30 1 4 5 13 6 22 0 9 -5 29 -5 45 -1 15
5 30 5 33 0 3 -5 16 -5 30 0 15 6 27 6 30 0 3 -5 15 -6 28 -1 12 5 32 5 44 0
13 -5 25 -4 28 1 3 6 15 6 30 0 15 -6 27 -6 30 1 4 5 13 6 22 0 9 -5 29 -5 45
-1 15 5 30 5 33 0 3 -5 16 -5 30 0 15 6 27 6 30 0 3 -5 16 -6 28 -2 25 9 74 8
83 -1 4 -4 15 -2 25 3 11 7 20 7 24 0 3 -5 15 -6 28 -1 12 5 34 5 49 0 16 -4
28 -4 28 1 0 5 13 5 30 0 17 -5 30 -5 30 0 0 5 12 5 28 1 29 -9 56 -2 59 14 2
18 12 68 38 195 14 69 27 136 30 150 3 14 7 36 10 50 3 14 7 36 10 50 3 14 7
36 10 50 3 14 7 36 10 50 7 38 14 70 25 125 12 58 17 86 26 135 4 19 9 44 11
55 5 21 29 138 39 190 6 33 9 47 23 115 5 25 11 59 14 75 3 17 21 109 41 205
19 96 37 186 40 200 2 14 10 48 16 76 6 28 13 64 15 80 2 16 4 29 5 29 1 0 3
9 5 20 2 11 14 67 25 125 12 58 23 116 26 130 2 14 7 36 9 50 6 27 7 36 31
150 8 41 18 89 21 105 4 28 16 84 29 145 13 63 54 269 59 300 3 19 8 42 10 50
4 16 13 59 20 100 2 14 7 36 10 50 11 55 44 227 50 260 3 19 11 55 16 80 6 25
13 56 15 70 4 22 24 120 30 145 3 11 13 66 20 110 3 17 10 50 15 75 16 69 19
83 23 117 3 18 7 37 11 42 3 6 8 27 10 48 2 21 11 72 20 113 9 41 18 84 21 95
17 86 14 85 44 10 14 -39 34 -85 43 -102 10 -18 17 -35 17 -38 0 -3 7 -21 15
-41 8 -20 15 -38 15 -40 0 -2 10 -26 21 -52 29 -63 38 -85 104 -247 32 -77 67
-160 77 -185 33 -77 36 -82 78 -185 22 -55 46 -111 52 -125 6 -14 12 -27 13
-30 2 -6 23 -59 32 -80 3 -8 7 -17 8 -20 1 -3 11 -27 23 -53 12 -27 22 -51 22
-53 0 -3 9 -24 19 -47 10 -23 35 -82 55 -132 20 -49 41 -99 46 -110 5 -11 23
-54 40 -95 17 -41 38 -88 45 -105 7 -16 32 -77 55 -135 23 -58 50 -123 60
-145 10 -22 30 -69 45 -105 14 -36 32 -78 40 -95 7 -16 34 -82 59 -145 26 -63
53 -128 61 -145 7 -16 23 -55 35 -85 12 -30 28 -71 37 -90 33 -75 42 -97 63
-149 11 -30 30 -74 41 -97 10 -24 19 -45 19 -48 0 -3 11 -30 25 -60 14 -30 25
-57 25 -60 0 -4 10 -28 21 -54 24 -54 30 -67 93 -217 l46 -110 365 1 c346 1
367 2 383 20 10 10 40 48 67 84 28 36 56 71 63 79 8 8 32 39 54 69 23 31 47
63 54 71 38 47 255 325 294 376 25 33 51 66 58 73 7 8 25 30 40 50 15 21 29
39 32 42 3 3 19 23 36 45 39 51 326 419 362 464 15 19 33 40 40 48 7 7 11 13
8 13 -3 0 2 8 12 18 33 35 62 72 62 80 0 4 9 14 20 22 11 8 20 20 20 26 0 7 4
14 8 16 4 2 104 127 222 278 248 318 224 288 253 322 12 14 35 45 51 67 17 23
33 41 38 41 4 0 8 6 8 14 0 8 4 16 8 18 4 2 52 60 105 130 54 70 103 133 110
140 7 7 25 31 42 53 16 22 35 47 42 55 41 51 148 188 207 264 37 49 72 94 77
100 27 32 47 57 69 86 21 28 80 104 133 170 7 9 25 33 42 55 16 22 42 54 58
70 l29 30 -7 -30 c-4 -16 -9 -41 -12 -55 -2 -14 -10 -56 -18 -95 -8 -38 -17
-83 -19 -99 -3 -16 -10 -52 -16 -80 -14 -68 -19 -95 -26 -131 -3 -16 -11 -61
-19 -100 -8 -38 -16 -81 -19 -95 -2 -14 -7 -36 -10 -50 -4 -14 -9 -38 -11 -55
-2 -16 -4 -30 -5 -30 -2 0 -6 -20 -13 -60 -3 -16 -8 -41 -11 -55 -3 -14 -8
-36 -10 -50 -3 -14 -8 -36 -11 -50 -3 -14 -8 -40 -11 -59 -3 -18 -7 -41 -9
-50 -2 -9 -13 -65 -25 -126 -12 -60 -24 -118 -26 -127 -6 -29 -11 -51 -18 -88
-3 -19 -8 -46 -11 -60 -3 -14 -7 -38 -10 -55 -3 -16 -10 -52 -17 -80 -6 -27
-12 -61 -14 -75 -1 -14 -3 -26 -4 -27 -3 -3 -4 -6 -13 -48 -3 -16 -9 -48 -12
-70 -3 -22 -10 -56 -15 -75 -5 -19 -12 -53 -15 -75 -4 -22 -8 -48 -11 -57 -5
-18 -5 -16 -28 -138 -9 -47 -18 -96 -21 -110 -3 -14 -7 -36 -10 -50 -3 -14
-14 -68 -25 -120 -10 -52 -17 -96 -15 -98 2 -3 0 -12 -4 -21 -5 -9 -12 -34
-15 -55 -4 -21 -8 -48 -11 -60 -3 -12 -7 -32 -9 -46 -2 -14 -16 -81 -30 -150
-14 -69 -27 -136 -30 -150 -2 -14 -7 -36 -10 -50 -3 -14 -8 -37 -11 -52 -3
-16 -7 -38 -10 -50 -12 -57 -35 -175 -39 -193 -1 -11 -6 -33 -9 -50 -4 -16 -9
-43 -12 -60 -7 -43 -13 -74 -19 -93 -3 -9 -7 -34 -10 -54 -3 -21 -10 -57 -15
-80 -6 -24 -12 -55 -15 -70 -2 -15 -12 -63 -20 -105 -9 -43 -18 -90 -20 -106
-3 -15 -7 -35 -10 -45 -6 -19 -17 -88 -19 -116 -2 -15 5 -19 36 -20 20 -1 37
2 37 5 0 4 18 3 40 -1 22 -4 43 -4 46 1 2 4 16 4 29 -1 15 -6 27 -6 30 1 4 5
13 6 22 0 9 -5 29 -5 45 -1 15 5 30 5 33 0 3 -5 16 -5 30 0 15 6 27 6 30 0 3
-5 15 -6 28 -1 12 5 32 5 44 0 13 -5 25 -4 28 1 3 6 15 6 30 0 15 -6 27 -6 30
1 4 5 13 6 22 0 9 -5 29 -5 45 -1 15 5 30 5 33 0 3 -5 16 -5 30 0 15 6 27 6
30 0 3 -5 15 -6 28 -1 12 5 32 5 44 0 13 -5 25 -4 28 1 3 6 15 6 30 0 15 -6
27 -6 30 1 4 5 13 6 22 0 9 -5 29 -5 45 -1 15 5 30 5 33 0 3 -5 16 -5 30 0 15
6 27 6 30 0 3 -5 16 -6 28 -2 25 8 69 8 83 -1 6 -3 16 -2 24 3 8 5 21 5 30 0
9 -5 22 -5 30 0 8 5 21 5 30 0 9 -5 22 -5 30 0 8 5 21 5 30 0 9 -5 22 -5 30 0
8 5 21 5 30 0 9 -5 22 -5 30 0 8 5 21 5 30 0 9 -5 22 -5 30 0 8 5 21 5 31 -1
11 -5 20 -5 23 0 3 5 15 7 26 4 13 -3 20 0 21 8 0 8 2 23 5 34 2 11 7 36 10
55 7 50 12 75 14 75 2 0 6 18 15 65 3 19 10 53 15 75 5 22 12 60 15 85 4 24 9
48 11 52 3 4 7 22 9 40 2 18 11 66 19 105 9 40 18 87 21 105 3 18 8 40 10 48
2 8 7 29 10 45 2 17 7 41 10 55 3 14 8 36 10 50 2 14 9 48 15 75 6 28 12 62
14 76 2 15 6 31 10 37 3 6 8 28 11 49 5 41 11 74 19 113 6 27 33 160 41 200 3
14 12 61 21 105 8 44 17 91 20 105 3 14 7 32 9 40 2 8 7 31 10 50 3 19 10 55
15 80 5 25 12 56 14 70 2 14 7 36 10 50 3 14 8 36 10 50 3 14 10 50 16 80 6
30 13 66 15 80 6 31 10 54 30 150 8 41 17 85 20 98 2 13 6 31 9 40 3 9 8 37
11 62 4 24 8 47 10 50 2 3 6 21 9 40 3 19 8 46 11 60 3 14 8 39 10 55 3 17 8
37 10 45 2 8 7 29 10 45 10 59 17 92 51 265 20 96 38 186 40 200 3 14 9 48 15
76 5 28 12 64 15 80 3 16 9 45 14 64 5 19 11 53 15 75 3 22 12 67 20 100 7 33
16 80 20 105 4 24 8 47 10 50 2 4 7 29 11 56 3 27 8 53 11 57 3 5 7 23 10 40
5 36 9 60 18 97 3 14 8 39 11 55 5 31 54 272 58 290 2 6 7 33 11 60 5 28 10
52 10 55 1 3 5 23 10 45 9 47 13 68 19 94 2 10 7 36 10 57 4 22 11 55 16 74 5
19 12 52 16 74 3 21 7 46 9 55 8 39 57 286 61 305 2 12 6 32 9 46 3 14 7 36
10 50 3 14 7 36 10 50 3 14 7 36 10 50 3 14 7 36 10 50 3 14 7 36 10 50 5 26
21 106 31 150 3 14 7 37 9 52 3 22 11 58 41 203 2 11 11 58 20 105 9 47 18 92
19 100 5 24 55 269 59 293 3 12 5 22 6 22 1 0 3 9 4 20 7 46 17 102 26 135 8
33 17 76 25 130 2 14 6 36 9 50 4 14 9 41 12 60 3 19 9 49 15 66 5 17 11 44
13 60 4 29 15 91 23 129 2 11 6 30 8 41 l5 21 -698 1 c-440 1 -706 -3 -722 -9
-14 -5 -40 -31 -57 -57 -18 -26 -44 -60 -57 -77 -35 -42 -116 -146 -146 -185
-14 -18 -30 -38 -35 -44 -6 -6 -34 -41 -62 -78 -28 -37 -56 -73 -62 -80 -7 -7
-50 -62 -97 -123 -47 -60 -93 -119 -102 -130 -9 -12 -39 -50 -66 -85 -28 -36
-56 -72 -63 -80 -8 -8 -59 -73 -114 -145 -55 -71 -108 -139 -117 -150 -9 -11
-30 -38 -46 -60 -17 -22 -33 -42 -36 -45 -3 -3 -62 -77 -130 -165 -69 -88
-130 -167 -137 -175 -7 -8 -49 -62 -94 -120 -46 -58 -88 -108 -93 -112 -7 -5
-7 -8 -1 -8 6 0 3 -6 -5 -13 -8 -7 -31 -32 -50 -57 -19 -25 -38 -46 -42 -48
-5 -2 -8 -10 -8 -17 0 -7 -3 -15 -8 -17 -4 -1 -25 -25 -47 -53 -56 -69 -60
-75 -94 -120 -17 -22 -37 -47 -44 -55 -8 -8 -36 -44 -63 -80 -26 -36 -51 -67
-54 -70 -3 -3 -21 -25 -40 -50 -19 -25 -38 -46 -42 -48 -5 -2 -8 -8 -8 -14 0
-6 -8 -18 -18 -27 -9 -9 -24 -26 -32 -37 -23 -34 -138 -180 -152 -195 -8 -8
-25 -30 -38 -49 -13 -19 -27 -37 -30 -40 -13 -12 -90 -109 -90 -114 0 -3 -16
-22 -35 -43 -19 -21 -35 -44 -35 -50 0 -7 -3 -13 -8 -13 -4 0 -32 -32 -61 -71
-30 -39 -60 -76 -65 -83 -6 -6 -40 -49 -76 -96 -35 -47 -67 -87 -70 -90 -3 -3
-54 -67 -113 -143 -59 -76 -112 -144 -118 -150 -5 -7 -46 -59 -91 -117 -44
-58 -83 -107 -87 -110 -3 -3 -26 -32 -51 -65 -58 -77 -194 -251 -226 -289 -14
-16 -39 -49 -56 -73 l-32 -43 -23 57 c-14 32 -31 72 -39 90 -8 17 -14 34 -14
38 0 4 -7 21 -15 38 -8 18 -24 57 -36 87 -11 30 -26 66 -32 80 -6 14 -11 27
-12 30 -5 15 -19 49 -31 77 -8 17 -14 34 -14 38 0 4 -7 23 -16 43 -9 21 -20
47 -25 60 -11 27 -22 53 -48 115 -11 26 -18 47 -15 47 3 0 -2 10 -10 22 -9 12
-16 30 -16 40 0 10 -4 18 -10 18 -5 0 -9 3 -8 8 2 6 -30 96 -53 147 -30 67
-651 1622 -652 1633 0 6 -4 12 -9 12 -4 0 -8 6 -8 13 0 10 -96 256 -129 332
-5 11 -30 74 -56 140 -27 66 -55 136 -63 155 -29 72 -35 86 -42 105 -8 21 -15
39 -48 120 -11 28 -28 70 -38 95 -10 25 -26 64 -36 87 -10 23 -18 45 -18 48 0
3 -11 31 -25 61 -14 30 -25 58 -25 63 0 4 -18 48 -39 99 -21 50 -36 93 -33 96
3 3 0 6 -6 6 -7 0 -11 3 -10 8 1 4 -3 17 -10 30 -7 12 -11 22 -8 22 3 0 -4 21
-15 48 -11 26 -25 57 -30 70 -5 12 -13 32 -19 45 -5 12 -20 49 -34 82 l-24 60
-676 1 -675 2 -6 -27z"/>
</g>
</svg>
